<?xml version="1.0" encoding="iso-8859-1"?>
<!-- Uploaded to: SVG Repo, www.svgrepo.com, Generator: SVG Repo Mixer Tools -->
<svg height="800px" width="800px" version="1.1" id="Layer_1" xmlns="http://www.w3.org/2000/svg" xmlns:xlink="http://www.w3.org/1999/xlink" 
	 viewBox="0 0 297.001 297.001" xml:space="preserve">
<g id="XMLID_49_">
	<g>
		<path style="fill:#682045;" d="M212.318,222.813c0,6.474-5.278,11.752-11.752,11.752c-6.484,0-11.761-5.278-11.761-11.752
			c0-6.484,5.278-11.761,11.761-11.761C207.04,211.052,212.318,216.329,212.318,222.813z"/>
		<path style="fill:#682045;" d="M200.567,274.751c-6.484,0-11.761-5.278-11.761-11.752c0-3.874,1.898-7.314,4.794-9.459
			c2.244,0.514,4.566,0.791,6.968,0.791c2.392,0,4.714-0.277,6.958-0.791c2.906,2.145,4.794,5.584,4.794,9.459
			C212.318,269.473,207.04,274.751,200.567,274.751z"/>
		<path style="fill:#682045;" d="M178.922,132.32c-6.484,0-11.752-5.278-11.752-11.761c0-6.484,5.268-11.752,11.752-11.752
			s11.761,5.268,11.761,11.752C190.683,127.042,185.405,132.32,178.922,132.32z"/>
		<path style="fill:#682045;" d="M233.953,120.558c0,6.484-5.268,11.761-11.752,11.761s-11.752-5.278-11.752-11.761
			c0-6.484,5.268-11.752,11.752-11.752C228.685,108.807,233.953,114.075,233.953,120.558z"/>
		<path style="fill:#682045;" d="M212.318,176.44c0,6.484-5.278,11.752-11.752,11.752c-6.484,0-11.761-5.268-11.761-11.752
			s5.278-11.761,11.761-11.761C207.04,164.678,212.318,169.956,212.318,176.44z"/>
		<path style="fill:#FF2B19;" d="M162.228,93.843c-8.895,5.574-14.825,15.468-14.825,26.715c0,5.97,1.66,11.554,4.556,16.318
			c-4.764-2.896-10.348-4.556-16.318-4.556c-17.375,0-31.519,14.133-31.519,31.519c0,4.062,0.781,7.936,2.174,11.495
			c-4.794,1.018-9.775,1.571-14.875,1.571c-39.504,0-71.656-32.141-71.656-71.656c0-7.047,1.038-14.035,2.995-22.732h137.332
			C161.013,86.608,161.724,90.324,162.228,93.843z"/>
		<path style="fill:#682045;" d="M243.837,231.471c-6.474,0-11.752-5.268-11.752-11.752s5.278-11.761,11.752-11.761
			c6.484,0,11.761,5.278,11.761,11.761C255.598,226.203,250.32,231.471,243.837,231.471z"/>
		<path style="fill:#682045;" d="M135.642,175.59c-6.484,0-11.752-5.268-11.752-11.752s5.268-11.752,11.752-11.752
			s11.761,5.268,11.761,11.752S142.125,175.59,135.642,175.59z"/>
		<path style="fill:#682045;" d="M277.233,163.838c0,6.484-5.268,11.752-11.752,11.752s-11.761-5.268-11.761-11.752
			s5.278-11.752,11.761-11.752C271.965,152.087,277.233,157.354,277.233,163.838z"/>
		<path d="M169.038,176.44c0-9.824,4.527-18.621,11.593-24.402c-0.563,0.03-1.137,0.049-1.71,0.049
			c-2.896,0-5.703-0.405-8.371-1.137c-1.265,2.184-2.619,4.319-4.062,6.385c0.445,2.105,0.682,4.28,0.682,6.503
			c0,9.824-4.527,18.621-11.593,24.402c0.563-0.03,1.137-0.049,1.71-0.049c5.97,0,11.554,1.67,16.318,4.566
			C170.708,187.993,169.038,182.409,169.038,176.44z M178.922,132.32c6.484,0,11.761-5.278,11.761-11.761
			c0-6.484-5.278-11.752-11.761-11.752c-6.484,0-11.752,5.268-11.752,11.752C167.17,127.042,172.438,132.32,178.922,132.32z
			 M123.89,163.838c0,6.484,5.268,11.752,11.752,11.752s11.761-5.268,11.761-11.752s-5.278-11.752-11.761-11.752
			C129.158,152.087,123.89,157.354,123.89,163.838z M200.567,188.191c6.474,0,11.752-5.268,11.752-11.752
			s-5.278-11.761-11.752-11.761c-6.484,0-11.761,5.278-11.761,11.761C188.805,182.923,194.083,188.191,200.567,188.191z
			 M200.567,234.565c6.474,0,11.752-5.278,11.752-11.752c0-6.484-5.278-11.761-11.752-11.761c-6.484,0-11.761,5.278-11.761,11.761
			C188.805,229.287,194.083,234.565,200.567,234.565z M200.567,274.751c6.474,0,11.752-5.278,11.752-11.752
			c0-3.874-1.888-7.314-4.794-9.459c-2.244,0.514-4.566,0.791-6.958,0.791c-2.402,0-4.724-0.277-6.968-0.791
			c-2.896,2.145-4.794,5.584-4.794,9.459C188.805,269.473,194.083,274.751,200.567,274.751z M222.202,132.32
			c6.484,0,11.752-5.278,11.752-11.761c0-6.484-5.268-11.752-11.752-11.752s-11.752,5.268-11.752,11.752
			C210.45,127.042,215.718,132.32,222.202,132.32z M243.837,231.471c6.484,0,11.761-5.268,11.761-11.752
			s-5.278-11.761-11.761-11.761c-6.474,0-11.752,5.278-11.752,11.761C232.085,226.203,237.363,231.471,243.837,231.471z
			 M227.529,192.757c4.764-2.896,10.348-4.566,16.308-4.566c0.583,0,1.146,0.02,1.72,0.049
			c-7.077-5.782-11.603-14.578-11.603-24.402c0-5.97,1.67-11.554,4.566-16.318c-4.764,2.896-10.348,4.566-16.318,4.566
			c-0.573,0-1.146-0.02-1.71-0.049c7.067,5.782,11.593,14.578,11.593,24.402C232.085,182.409,230.415,187.993,227.529,192.757z
			 M81.539,258.443v-62.306C35.758,191.195,0,152.323,0,105.248c0-15.231,3.766-29.324,10.012-52.679
			c2.382-8.915,5.08-19.016,8.144-31.262c1.107-4.398,5.06-7.482,9.587-7.482h127.359c4.537,0,8.49,3.084,9.587,7.482
			c3.074,12.246,5.772,22.347,8.154,31.262c4.042,15.142,7.047,26.389,8.658,36.589c2.135,0.168,4.21,0.553,6.197,1.137
			c-12.71-49.161,3.351-81.055,4.092-82.488c2.52-4.843,8.48-6.731,13.323-4.21c4.833,2.501,6.721,8.441,4.25,13.274
			c-0.662,1.315-14.628,30.016-0.623,75.194c4.082-1.937,8.648-3.024,13.461-3.024c17.385,0,31.519,14.143,31.519,31.519
			c0,5.97-1.66,11.554-4.556,16.318c4.764-2.896,10.348-4.556,16.318-4.556c17.385,0,31.519,14.133,31.519,31.519
			s-14.133,31.519-31.519,31.519c-0.573,0-1.146-0.01-1.71-0.04c7.067,5.782,11.593,14.568,11.593,24.402
			c0,17.375-14.143,31.519-31.528,31.519c-5.96,0-11.544-1.67-16.308-4.556c2.886,4.764,4.556,10.348,4.556,16.318
			c0,17.375-14.143,31.519-31.519,31.519c-17.385,0-31.528-14.143-31.528-31.519c0-5.97,1.67-11.554,4.566-16.318
			c-4.764,2.886-10.348,4.556-16.318,4.556c-17.385,0-31.528-14.143-31.528-31.519c0-9.834,4.527-18.621,11.593-24.402
			c-0.563,0.03-1.137,0.04-1.71,0.04c-5.278,0-10.259-1.305-14.628-3.607c-6.296,2.155-12.888,3.627-19.708,4.369v62.326h22.732
			c5.466,0,9.884,4.428,9.884,9.884s-4.418,9.884-9.884,9.884h-65.23c-5.456,0-9.884-4.428-9.884-9.884s4.428-9.884,9.884-9.884
			h22.732V258.443z M265.482,175.59c6.484,0,11.752-5.268,11.752-11.752s-5.268-11.752-11.752-11.752s-11.761,5.268-11.761,11.752
			S258.998,175.59,265.482,175.59z M27.753,62.749h127.349c-0.435-1.641-0.89-3.321-1.354-5.08
			c-1.908-7.106-4.003-14.964-6.335-24.076H35.442c-2.333,9.113-4.438,16.97-6.335,24.076
			C28.643,59.428,28.188,61.109,27.753,62.749z M147.403,120.558c0-11.247,5.93-21.141,14.825-26.715
			c-0.504-3.519-1.216-7.235-2.135-11.327H22.762c-1.957,8.698-2.995,15.685-2.995,22.732c0,39.514,32.151,71.656,71.656,71.656
			c5.1,0,10.081-0.553,14.875-1.571c-1.394-3.558-2.174-7.432-2.174-11.495c0-17.385,14.143-31.519,31.519-31.519
			c5.97,0,11.554,1.66,16.318,4.556C149.064,132.112,147.403,126.528,147.403,120.558z M145.525,219.72
			c0,6.484,5.278,11.752,11.761,11.752c6.484,0,11.752-5.268,11.752-11.752s-5.268-11.761-11.752-11.761
			C150.803,207.958,145.525,213.236,145.525,219.72z"/>
		<path style="fill:#682045;" d="M157.287,231.471c-6.484,0-11.761-5.268-11.761-11.752s5.278-11.761,11.761-11.761
			c6.484,0,11.752,5.278,11.752,11.761C169.038,226.203,163.77,231.471,157.287,231.471z"/>
	</g>
</g>
</svg>